<?xml version="1.0" encoding="UTF-8"?>
<svg width="24px" height="24px" viewBox="0 0 24 24" version="1.1" xmlns="http://www.w3.org/2000/svg" xmlns:xlink="http://www.w3.org/1999/xlink">
    <!-- Generator: Sketch 45.2 (43514) - http://www.bohemiancoding.com/sketch -->
    <title>play-circle - FontAwesome</title>
    <desc>Created with Sketch.</desc>
    <defs></defs>
    <g id="Main-CMS" stroke="none" stroke-width="1" fill="none" fill-rule="evenodd">
        <g id="Desktop" transform="translate(-934.000000, -510.000000)" fill="#FFFFFF">
            <g id="Sidebar" transform="translate(854.000000, 0.000000)">
                <g id="VideoContent" transform="translate(16.000000, 412.000000)">
                    <g id="item" transform="translate(0.000000, 67.000000)">
                        <path d="M76.0000143,30.9999738 C82.6250222,30.9999738 88.0000286,36.3749802 88.0000286,42.9999881 C88.0000286,49.624996 82.6250222,55.0000024 76.0000143,55.0000024 C69.3750064,55.0000024 64,49.624996 64,42.9999881 C64,36.3749802 69.3750064,30.9999738 76.0000143,30.9999738 Z M82.0000215,43.8593641 C82.3125218,43.6874889 82.5000221,43.3593635 82.5000221,42.9999881 C82.5000221,42.6406127 82.3125218,42.3124873 82.0000215,42.1406121 L73.5000113,37.1406061 C73.203136,36.9531059 72.8125105,36.9531059 72.5000101,37.1249811 C72.1875098,37.3124813 72.0000095,37.6406067 72.0000095,37.9999821 L72.0000095,47.999994 C72.0000095,48.3593695 72.1875098,48.6874949 72.5000101,48.8749951 C72.6562603,48.9531202 72.8281355,48.9999952 73.0000107,48.9999952 C73.1718859,48.9999952 73.3437611,48.9531202 73.5000113,48.8593701 L82.0000215,43.8593641 Z" id="play-circle---FontAwesome"></path>
                    </g>
                </g>
            </g>
        </g>
    </g>
</svg>